<?xml version="1.0" encoding="UTF-8"?>
<svg id="Layer_1" xmlns="http://www.w3.org/2000/svg" viewBox="0 0 1618.4 374.43">
  <defs>
    <style>
      .cls-1 {
        letter-spacing: -.02em;
      }

      .cls-2 {
        letter-spacing: .01em;
      }

      .cls-3, .cls-4 {
        fill: #fff;
      }

      .cls-4 {
        font-family: MinionVariableConcept-Roman, 'Minion Variable Concept';
        font-size: 214px;
        font-variation-settings: 'wght' 400, 'opsz' 11;
      }

      .cls-5 {
        letter-spacing: 0em;
      }

      .cls-6 {
        letter-spacing: -.08em;
      }

      .cls-7 {
        letter-spacing: -.01em;
      }

      .cls-8 {
        letter-spacing: -.05em;
      }

      .cls-9 {
        letter-spacing: .01em;
      }
    </style>
  </defs>
  <g>
    <path class="cls-3" d="M58.01,4.21c14.74,0,26.69,11.81,26.97,26.47v74.56c17.68-9.19,37.74-15.52,59.13-18.58.04-.07.07-.15.11-.22,1.29-2.7,2.6-5.43,3.93-8.17V30.68c.29-14.66,12.24-26.47,26.98-26.47h5.33l.07-4.21H52.62l.07,4.21h5.33Z"/>
    <path class="cls-3" d="M285.83,208.82c-13.05,41.78-40.35,67.92-82.41,67.92h-55.27v-9.72c-11.98,8.96-26.3,14.17-40.9,14.29h-.44s-.35-.02-.35-.02l-5.35,13.45h169.5l19.42-85.92h-4.21Z"/>
    <path class="cls-3" d="M157.7,182.96c-4.91-7.22-11.9-12.72-19.88-16.23l14.17-35.65c39.9.03,92.49-54.94,93.76-99.75.37-13.07-12.57-22.46-24.9-18.12-34.67,12.23-51.54,51.58-67.99,85.61-26.68,2.86-53.39,11.28-75.76,26.34-45.03,30.32-56.58,102.54-5.1,132.4,5.37,3.11,11.1,5.58,17.04,7.36l-5.69,13.82c-1.36,3.32-2.54,6.71-3.6,10.13-18.07,58.54-69.35,46.52-68.39,19.6.13.09.25.17.38.26,10.29,6.64,24.09,3.45,30.39-7.18,5.73-9.67,3-22.31-6.21-28.76-10.12-7.09-24.01-4.3-30.65,5.99-.1.16-.2.31-.3.48-11.32,18.28-4.25,50.22,30.06,58.65,12.24,2.07,24.64-1.33,35.31-12.32,4.96-5.12,8.79-11.23,11.43-17.86l16.16-40.67c3.05.55,6.12.91,9.18,1.09,42.35-.35,73.47-51.54,50.56-85.19ZM223.44,37.47c3.45.27,6.36,2.67,7.26,6.01,7.79,28.86-39.25,51.99-66.66,52.1,15.18-29.39,29.56-60.51,59.4-58.12ZM91.51,258.94c-28.49-8.18-53.93-39.05-42.9-74.91,5.02-16.32,16.7-29.75,31.93-37.46,19.63-9.94,40.77-15.52,63.73-15.89l-13.74,33.4c-47.52-13.84-71.36,46.3-45.48,70.95-10.57-20.66-4.89-40.95,13.53-48.1,7.43-2.89,15.48-2.97,22.8-.6l-29.87,72.6ZM100.47,260.74l28.24-71.06c2.4,1.45,4.64,3.21,6.66,5.25,14.25,14.36,15.54,38.29-7.55,60.28-8.25,5-17.78,6.63-27.35,5.53Z"/>
  </g>
  <text class="cls-4" transform="translate(311.43 296.75)"><tspan x="0" y="0">E</tspan><tspan class="cls-9" x="126.04" y="0">I</tspan><tspan class="cls-6" x="205.01" y="0">L</tspan><tspan class="cls-1" x="309.65" y="0">’</tspan><tspan x="351.6" y="0">S </tspan><tspan class="cls-7" x="506.74" y="0">G</tspan><tspan x="660.82" y="0">U</tspan><tspan class="cls-5" x="818.96" y="0">I</tspan><tspan class="cls-8" x="896.86" y="0">T</tspan><tspan class="cls-2" x="1021.83" y="0">A</tspan><tspan x="1155.37" y="0">R</tspan></text>
</svg>